<svg xmlns="http://www.w3.org/2000/svg" width="24" height="24" viewBox="0 0 24 24" fill="none">
                                            <path fill-rule="evenodd" clip-rule="evenodd" d="M11.9998 2.91699C6.98325 2.91699 2.9165 6.98374 2.9165 12.0003C2.9165 17.0169 6.98325 21.0837 11.9998 21.0837C17.0164 21.0837 21.0832 17.0169 21.0832 12.0003C21.0832 6.98374 17.0164 2.91699 11.9998 2.91699ZM4.4165 12.0003C4.4165 7.81217 7.81168 4.41699 11.9998 4.41699C16.188 4.41699 19.5832 7.81217 19.5832 12.0003C19.5832 13.8893 18.8925 15.617 17.7498 16.9447V16.6008C17.7689 16.1524 17.676 15.7063 17.4792 15.3027C17.2794 14.8931 16.9792 14.5407 16.6065 14.2785C16.5979 14.2725 16.5892 14.2666 16.5804 14.261L16.4637 14.186L16.4475 14.1758C15.865 13.822 15.2456 13.5398 14.6026 13.333C15.2602 12.6703 15.6665 11.7578 15.6665 10.7503C15.6665 8.72528 14.0249 7.08366 11.9998 7.08366C9.97479 7.08366 8.33317 8.72528 8.33317 10.7503C8.33317 11.7578 8.73946 12.6703 9.39711 13.333C8.75412 13.5398 8.13467 13.822 7.55219 14.1758L7.53594 14.186L7.41927 14.261C7.41047 14.2666 7.40179 14.2725 7.39323 14.2785C7.02052 14.5408 6.72029 14.8931 6.52052 15.3027C6.32373 15.7063 6.23074 16.1524 6.24984 16.6008V16.9447C5.10721 15.6171 4.4165 13.8894 4.4165 12.0003ZM7.74984 18.2817C8.96213 19.1036 10.4249 19.5837 11.9998 19.5837C13.5748 19.5837 15.0376 19.1036 16.2498 18.2817V16.5835C16.2498 16.571 16.2502 16.5585 16.2508 16.5459C16.2609 16.3437 16.2197 16.1422 16.1309 15.9602C16.0442 15.7824 15.9149 15.6288 15.7545 15.5132L15.6609 15.453C14.5602 14.7865 13.3004 14.4287 12.0138 14.417L11.9998 14.417L11.9859 14.417C10.6993 14.4287 9.43951 14.7865 8.33882 15.453L8.24521 15.5132C8.08483 15.6288 7.95547 15.7824 7.86874 15.9602C7.77999 16.1422 7.73876 16.3437 7.7489 16.5459C7.74953 16.5585 7.74984 16.571 7.74984 16.5835V18.2817ZM11.9998 8.58366C10.8032 8.58366 9.83317 9.55371 9.83317 10.7503C9.83317 11.9415 10.7945 12.9082 11.9836 12.9169L12.0047 12.9168L12.0161 12.9169C13.2052 12.9082 14.1665 11.9415 14.1665 10.7503C14.1665 9.55371 13.1965 8.58366 11.9998 8.58366Z" fill="black"/>
                                        </svg>