<svg class="nav-search-btn" xmlns="http://www.w3.org/2000/svg" width="24" height="24" viewBox="0 0 24 24" fill="none">
                            <path fill-rule="evenodd" clip-rule="evenodd" d="M15.5 11C15.5 13.4853 13.4853 15.5 11 15.5C8.51472 15.5 6.5 13.4853 6.5 11C6.5 8.51472 8.51472 6.5 11 6.5C13.4853 6.5 15.5 8.51472 15.5 11ZM14.7133 15.7133C13.6918 16.5191 12.4021 17 11 17C7.68629 17 5 14.3137 5 11C5 7.68629 7.68629 5 11 5C14.3137 5 17 7.68629 17 11C17 12.371 16.5402 13.6346 15.7663 14.645L19.0607 17.9393L18 19L14.7133 15.7133Z" fill="black"/>
                        </svg>